# xmcd
#
# Track frame offsets: 
#        150
#        29362
#        71547
#        94270
#        133727
#        158855
#        181782
#        217935
#        244425
#        275852
#
# Disc length: 4262 seconds
#
# Revision: 3
# Processed by: cddbd v1.5.2PL0 Copyright (c) Steve Scherf et al.
# Submitted via: ExactAudioCopyFreeDBPlugin 1.0
#
DISCID=9310a40a
DTITLE=Cuby and Blizzards - Blues Traveller (Disk 4)
DYEAR=2000
DGENRE=Blues
TTITLE0=Sugar mama
TTITLE1=Sweet little angel
TTITLE2=Rock me, baby
TTITLE3=I'm in love
TTITLE4=Checkin' up on my baby
TTITLE5=Goin' down
TTITLE6=Shaky grounds
TTITLE7=Brother Booze
TTITLE8=Five long years
TTITLE9=Hobo blues
EXTD=YEAR: 2000
EXTT0=
EXTT1=
EXTT2=
EXTT3=
EXTT4=
EXTT5=
EXTT6=
EXTT7=
EXTT8=
EXTT9=
PLAYORDER=
